<?xml version="1.0" standalone="no"?>
<!DOCTYPE svg PUBLIC "-//W3C//DTD SVG 20010904//EN"
 "http://www.w3.org/TR/2001/REC-SVG-20010904/DTD/svg10.dtd">
<svg version="1.0" xmlns="http://www.w3.org/2000/svg"
 width="288.000000pt" height="288.000000pt" viewBox="0 0 288.000000 288.000000"
 preserveAspectRatio="xMidYMid meet">
<metadata>
Created by potrace 1.11, written by Peter Selinger 2001-2013
</metadata>
<g transform="translate(0.000000,288.000000) scale(0.100000,-0.100000)"
fill="#000000" stroke="none">
<path d="M1275 2870 c-22 -5 -56 -11 -75 -14 -73 -12 -91 -17 -177 -47 -444
-157 -759 -525 -842 -988 -22 -119 -23 -366 -2 -455 7 -27 9 -51 6 -54 -2 -3
0 -11 6 -18 6 -8 9 -21 5 -29 -3 -9 -2 -14 3 -11 14 9 22 -36 9 -51 -8 -11 -7
-12 6 -7 15 6 20 -8 15 -42 0 -4 3 -10 8 -13 10 -7 44 -82 43 -94 0 -4 6 -15
15 -23 8 -9 13 -20 10 -25 -4 -5 -2 -9 4 -9 10 0 27 -38 23 -52 -1 -5 2 -8 7
-8 14 0 91 -117 83 -126 -4 -4 -1 -4 6 0 7 4 15 0 19 -11 4 -10 16 -26 27 -36
12 -11 20 -26 18 -34 -2 -8 1 -12 6 -9 10 6 98 -73 94 -86 -1 -4 4 -7 10 -6 7
2 12 -2 11 -9 -2 -8 4 -10 14 -6 13 5 15 2 10 -11 -4 -10 -3 -15 3 -11 5 3 18
-3 30 -15 11 -11 21 -19 23 -18 5 4 97 -55 97 -63 0 -5 3 -8 8 -7 4 1 20 -4
36 -11 28 -11 29 -12 10 -34 l-19 -22 22 19 c23 19 60 15 47 -5 -4 -8 -3 -9 4
-5 6 4 27 0 47 -8 19 -8 39 -16 43 -18 4 -2 6 -5 5 -8 -1 -3 8 -6 20 -6 12 -1
31 -4 42 -7 11 -3 32 -8 48 -12 15 -4 27 -10 27 -14 0 -4 14 -6 30 -5 17 1 33
-2 36 -7 3 -5 10 -7 15 -3 5 3 17 0 26 -8 9 -7 14 -8 10 -2 -4 7 4 9 23 6 19
-3 27 -8 23 -16 -4 -6 1 -5 10 3 14 11 17 11 17 0 0 -11 2 -11 10 1 5 8 10 11
10 5 0 -11 150 -12 168 -1 6 3 14 2 17 -4 5 -8 12 -7 23 2 13 11 14 11 7 -1
-6 -11 -5 -12 6 -5 8 4 21 9 29 11 81 11 113 17 168 32 23 7 46 9 51 6 5 -3
11 0 13 6 2 7 18 12 35 13 17 0 29 4 27 8 -3 4 14 12 36 19 22 7 40 17 40 22
0 6 3 8 6 4 7 -7 80 28 106 50 9 8 21 12 26 9 6 -3 13 1 16 10 3 8 10 13 15
10 5 -3 12 1 15 10 3 8 10 13 15 10 5 -3 12 1 15 10 3 9 13 14 21 10 8 -3 17
0 21 6 5 7 2 8 -7 3 -12 -8 -12 -6 0 8 7 9 17 17 22 17 4 0 27 18 49 40 23 22
46 38 51 34 5 -3 8 0 7 8 -2 7 3 12 10 10 8 -1 11 2 8 7 -4 5 15 33 41 61 27
29 67 80 91 113 24 34 48 61 54 59 5 -1 7 2 4 6 -8 13 58 144 68 135 4 -4 4 0
1 9 -4 9 -2 19 4 23 6 3 11 13 11 22 0 8 6 29 14 46 12 26 39 116 38 124 -1 2
4 17 9 35 9 31 15 74 24 163 6 57 6 184 1 225 -3 19 -7 54 -10 78 -3 24 -15
81 -26 127 -118 472 -511 845 -991 940 -91 18 -348 27 -414 15z"/>
<path d="M2669 1083 c-13 -16 -12 -17 4 -4 16 13 21 21 13 21 -2 0 -10 -8 -17
-17z"/>
<path d="M2606 1038 c3 -5 10 -6 15 -3 13 9 11 12 -6 12 -8 0 -12 -4 -9 -9z"/>
<path d="M336 887 c3 -10 9 -15 12 -12 3 3 0 11 -7 18 -10 9 -11 8 -5 -6z"/>
<path d="M386 798 c3 -5 10 -6 15 -3 13 9 11 12 -6 12 -8 0 -12 -4 -9 -9z"/>
<path d="M494 682 c4 -3 14 -7 22 -8 9 -1 13 0 10 4 -4 3 -14 7 -22 8 -9 1
-13 0 -10 -4z"/>
<path d="M2373 655 c0 -8 4 -12 9 -9 5 3 6 10 3 15 -9 13 -12 11 -12 -6z"/>
<path d="M536 622 c-3 -5 1 -9 9 -9 8 0 12 4 9 9 -3 4 -7 8 -9 8 -2 0 -6 -4
-9 -8z"/>
<path d="M2270 560 c0 -5 5 -10 11 -10 5 0 7 5 4 10 -3 6 -8 10 -11 10 -2 0
-4 -4 -4 -10z"/>
<path d="M2215 501 c-3 -5 -2 -12 3 -15 5 -3 9 1 9 9 0 17 -3 19 -12 6z"/>
<path d="M693 465 c0 -8 4 -12 9 -9 5 3 6 10 3 15 -9 13 -12 11 -12 -6z"/>
<path d="M2116 447 c3 -10 9 -15 12 -12 3 3 0 11 -7 18 -10 9 -11 8 -5 -6z"/>
<path d="M2050 419 c0 -5 5 -7 10 -4 6 3 10 8 10 11 0 2 -4 4 -10 4 -5 0 -10
-5 -10 -11z"/>
<path d="M815 400 c-3 -5 -1 -10 4 -10 6 0 11 5 11 10 0 6 -2 10 -4 10 -3 0
-8 -4 -11 -10z"/>
<path d="M2035 379 c-3 -4 2 -6 10 -5 21 3 28 13 10 13 -9 0 -18 -4 -20 -8z"/>
<path d="M1836 362 c-3 -5 1 -9 9 -9 8 0 12 4 9 9 -3 4 -7 8 -9 8 -2 0 -6 -4
-9 -8z"/>
<path d="M935 340 c-3 -5 -1 -10 4 -10 6 0 11 5 11 10 0 6 -2 10 -4 10 -3 0
-8 -4 -11 -10z"/>
<path d="M1750 338 c0 -4 4 -8 9 -8 6 0 12 4 15 8 3 5 -1 9 -9 9 -8 0 -15 -4
-15 -9z"/>
<path d="M1930 339 c0 -5 5 -7 10 -4 6 3 10 8 10 11 0 2 -4 4 -10 4 -5 0 -10
-5 -10 -11z"/>
<path d="M1056 318 c3 -5 10 -6 15 -3 13 9 11 12 -6 12 -8 0 -12 -4 -9 -9z"/>
<path d="M1119 313 c-13 -16 -12 -17 4 -4 9 7 17 15 17 17 0 8 -8 3 -21 -13z"/>
<path d="M1156 322 c-3 -5 1 -9 9 -9 8 0 12 4 9 9 -3 4 -7 8 -9 8 -2 0 -6 -4
-9 -8z"/>
<path d="M990 306 c0 -2 7 -7 16 -10 8 -3 12 -2 9 4 -6 10 -25 14 -25 6z"/>
<path d="M1850 299 c0 -5 5 -7 10 -4 6 3 10 8 10 11 0 2 -4 4 -10 4 -5 0 -10
-5 -10 -11z"/>
<path d="M1155 291 c-3 -5 -2 -12 3 -15 5 -3 9 1 9 9 0 17 -3 19 -12 6z"/>
<path d="M1227 279 c7 -7 15 -10 18 -7 3 3 -2 9 -12 12 -14 6 -15 5 -6 -5z"/>
<path d="M1446 278 c3 -5 10 -6 15 -3 13 9 11 12 -6 12 -8 0 -12 -4 -9 -9z"/>
<path d="M1091 247 c-13 -21 -12 -21 5 -5 10 10 16 20 13 22 -3 3 -11 -5 -18
-17z"/>
<path d="M1395 251 c-3 -5 -2 -12 3 -15 5 -3 9 1 9 9 0 17 -3 19 -12 6z"/>
<path d="M1629 243 c-13 -16 -12 -17 4 -4 16 13 21 21 13 21 -2 0 -10 -8 -17
-17z"/>
<path d="M1494 218 c-4 -7 -4 -10 1 -6 4 4 15 2 24 -5 14 -11 14 -10 2 6 -16
20 -18 21 -27 5z"/>
<path d="M1586 222 c-3 -5 1 -9 9 -9 8 0 12 4 9 9 -3 4 -7 8 -9 8 -2 0 -6 -4
-9 -8z"/>
</g>
</svg>
